<!-- Created with Inkscape (http://www.inkscape.org/) -->
<svg version="1.1" viewBox="0 0 465.5 313.02" xml:space="preserve" xmlns="http://www.w3.org/2000/svg"><g transform="translate(145.52 -633.15)"><g transform="translate(-.064635 .76962)" fill="currentColor"><g transform="translate(.17714 .24724)" fill="currentColor"/></g><path d="m-28.921 944.42c-2.1218-1.7522-2.4966-4.6758-3.0031-23.425l-0.0993-3.6745-42.75-0.3666c-42.305-0.3628-42.811-0.3914-48.58-2.745-8.1025-3.3053-14.893-9.7162-18.889-17.834l-3.2806-6.6638v-230.08l3.2597-6.6214c3.7937-7.7061 9.2149-12.995 17.12-16.701l5.62-2.6352 372.83-0.52081 20.105 20.26c11.058 11.143 26.058 26.373 33.334 33.843l13.229 13.583v240.43l-4.9091 4.9091h-170.93c-161.32 0-171.05-0.099-173.05-1.75zm333.9-123.25v-110h-56.822l-5.2342-6.2206 0.0886-28.14 0.0886-28.14-146.89-0.51284 5.0732 12.513 0.48959 111.28c0.55055 125.14 0.88608 118.76-6.8137 129.51-4.5393 6.3391-9.525 9.9874-17.55 12.842-5.6643 2.0151-7.8847 2.1141-50.174 2.2363l-44.248 0.128-4e-3 14.5h322zm-176.66 58.594c-7.2816-7.4628-8.4895-10.566-5.6171-14.431 2.9021-3.9048 7.2748-4.0341 11.412-0.3374l3.2908 2.9404 7.1653-7.5225c6.5118-6.8364 7.4274-7.4602 10.039-6.8403 3.5533 0.8434 6.3739 4.0367 6.3739 7.2162 0 2.4009-12.234 17.034-19.004 22.73-4.7117 3.9646-6.6465 3.4327-13.66-3.7558zm40.914 1.9365c-2.8571-1.2606-3.25-1.9003-3.25-5.2911 0-2.1215 0.63852-4.7307 1.4189-5.7983 1.3685-1.8721 3.2676-1.9509 53.407-2.217l51.988-0.2759 2.093 2.6607c2.6032 3.3094 2.6634 6.4648 0.18196 9.5303l-1.911 2.3608-50.339 0.2323c-41.911 0.1934-50.883-0.01-53.589-1.2018zm-41.462-46.468c-7.4298-7.5935-8.211-9.9837-4.7155-14.428 2.6006-3.3061 5.6014-3.3453 10.332-0.1348 2.0262 1.375 4.0174 2.5 4.425 2.5s3.4996-2.925 6.8712-6.5c6.781-7.19 10.453-8.3457 14.299-4.5 3.9082 3.9082 2.7081 7.1818-6.1308 16.723-15.066 16.263-15.311 16.325-25.081 6.3392zm41.712 2.7875c-2.8197-1.6621-3.4672-2.8884-3.4847-6.5998-9e-3 -1.9331 0.7951-4.0604 1.9847-5.25 1.9482-1.9482 3.3333-2 53.429-2 45.399 0 51.613 0.184 52.998 1.5699 3.2907 3.2907 3.1432 9.5193-0.26873 11.345-2.7528 1.4733-102.24 2.3616-104.66 0.9346zm-41.042-46.581c-7.5415-7.7675-8.5703-10.296-5.739-14.106 2.7683-3.7248 6.587-3.9161 11.413-0.5718l3.9552 2.741 6.2224-6.6661c5.0112-5.3684 6.8087-6.666 9.2341-6.666 4.6393 0 7.4567 2.494 7.4567 6.6007 0 3.0083-1.1924 4.7516-8.6817 12.693-9.2734 9.8334-12.775 12.689-15.572 12.699-0.96431 0-4.6944-3.0226-8.2891-6.725zm39.197 1.9028c-2.0289-2.2419-2.1576-8.1017-0.2356-10.73 1.3736-1.8786 3.1009-1.9411 53.588-1.9411h52.169l1.9116 2.3608c2.4765 3.0583 2.423 6.2194-0.16093 9.5043l-2.0726 2.6349h-51.772c-48.886 0-51.865-0.102-53.427-1.8288zm-34.68-40.453c-0.83861-0.67-3.7194-3.5879-6.4017-6.4841-3.7474-4.0462-4.8567-5.9804-4.7893-8.3506 0.19396-6.8216 7.3303-9.1823 13.095-4.3318l3.0326 2.5518 3.7942-4.2998c2.0868-2.3649 5.0792-5.5382 6.6499-7.0518 4.5771-4.4107 10.3-3.4117 12.626 2.204 1.6018 3.8669 0.93733 4.915-11.094 17.5-7.7778 8.1358-9.5858 9.539-12.256 9.5119-1.7225-0.017-3.8179-0.58-4.6565-1.25zm35.025-3.7182c-2.3555-2.3555-2.6511-7.7271-0.58108-10.559 1.3682-1.8717 3.264-1.951 53.019-2.2174l51.6-0.2763 2.4808 2.4808c3.176 3.176 3.2453 7.505 0.1664 10.398-2.3141 2.1739-2.3229 2.1743-53.5 2.1743-49.852 0-51.238-0.052-53.186-2zm-40.5-43.155c-5.0481-2.7611-5.9047-7.5314-2.0454-11.391l2.4545-2.4545h41.411c40.38 0 41.476 0.052 44.045 2.0726 3.4444 2.7093 3.5205 7.1326 0.18031 10.473l-2.4545 2.4546-40.795-0.03c-27.591-0.021-41.443-0.3845-42.795-1.1244zm-53.5 193.79c4.9172-2.6229 7.8527-5.4976 10.347-10.133l2.1527-4v-109.5c0-60.225-0.36534-111.23-0.81185-113.34-1.0497-4.9626-8.0799-12.122-13.337-13.581-2.6042-0.72311-33.458-1.0712-95.286-1.075-90.397-6e-3 -91.483 0.0179-95.706 2.0624-5.999 2.9041-9.9464 7.7779-11.26 13.902-0.7615 3.5508-1.0968 38.255-1.09 112.83l0.01 107.7 2.3745 5.0995c2.7149 5.8305 6.9567 9.2751 13.545 10.999 3.3929 0.8879 27.742 1.1562 95.061 1.0475 86.278-0.1394 90.663-0.2333 94-2.0132zm-144.24-35.401c-23.316-0.2633-23.765-0.3078-25.201-2.5-1.2182-1.8592-1.4903-9.3287-1.6296-44.732-0.092-23.375-0.38871-43.953-0.65933-45.729-0.46684-3.0639-0.60021-3.1535-2.6041-1.75-6.7008 4.6934-15.357-1.6252-11.669-8.5173 1.6733-3.1266 84.55-70.934 88.563-72.46 3.7263-1.4169 6.7774 0.598 27.299 18.028l18.14 15.407v-11.417c0-11.143 0.06326-11.467 2.6349-13.489 3.4953-2.7494 6.9109-2.6178 9.9106 0.3819 2.4149 2.4149 2.4549 2.7338 2.4764 19.75l0.02185 17.296 10.853 8.8237c22.002 17.889 23.66 20.157 19.031 26.041-2.7013 3.4342-6.8034 3.4515-10.851 0.046l-3.0767-2.5889v46.934c0 44.946-0.08099 47.007-1.9123 48.664-1.751 1.5847-5.9458 1.7453-49.75 1.905-26.311 0.096-58.52 0.054-71.577-0.094zm20.239-40.685c0-25.914 0.4718-29.692 3.8854-31.106 0.888-0.3679 11.965-0.5933 24.615-0.5009 21.448 0.1567 23.135 0.3015 25 2.1459 1.8778 1.857 2.0078 3.3966 2.1283 25.196 0.07059 12.77 0.18308 24.681 0.25 26.468l0.12166 3.25h32l0.14302-2.75c0.07866-1.5125 0.04649-22.775-0.07149-47.25l-0.21452-44.5-3.6785-3.2497c-2.0232-1.7874-9.0307-7.6374-15.572-13-6.5415-5.3627-18.242-14.991-26-21.396l-14.106-11.646-2.6771 2.1461c-1.4724 1.1803-15.068 12.186-30.213 24.456l-27.536 22.31-0.28687 22.19c-0.15778 12.204-0.15955 33.552-4e-3 47.44l0.28293 25.25h31.934zm40.77 4.3738-0.26989-21.079-25-0.3417-0.53978 42.5h26.08zm288.72-147.17c-8.1779-8.3875-16.359-16.818-18.18-18.733l-3.3106-3.4833v37.467h36.359z"/></g></svg>
